# xmcd CD database file
#
# Track frame offsets:
#	183
#	13163
#	30988
#	52218
#	63628
#	84150
#	100415
#	134893
#	149633
#	166108
#
# Disc length: 2564 seconds
#
# Revision: 11
# Processed by: cddbd v1.5.2PL0 Copyright (c) Steve Scherf et al.
# Submitted via: CDex 1.82
#
DISCID=8f0a020a
DTITLE=Petr Kalandra - Petr Kalandra and Blues Session
DYEAR=1993
DGENRE=Blues
TTITLE0=Detske saty - Heart Of Gold
TTITLE1=Jednou dvakrat - After Midnight
TTITLE2=Brime - Weight
TTITLE3=Sam smutnej den - Lonely By Day
TTITLE4=Nebeska brana - Knockin' On Heaven's Door
TTITLE5=Slunce a dest - Fire And Rain
TTITLE6=Solnej sloup - Like a Rolling Stone
TTITLE7=Moje misto - Old Man
TTITLE8=Cocaine
TTITLE9=Vsichni budou hotovi - Rainy Day Woman
EXTD=YEAR: 1993
EXTT0=
EXTT1=
EXTT2=
EXTT3=
EXTT4=
EXTT5=
EXTT6=
EXTT7=
EXTT8=
EXTT9=
PLAYORDER=
